<?xml version="1.0" standalone="no"?>
<!DOCTYPE svg PUBLIC "-//W3C//DTD SVG 20010904//EN"
 "http://www.w3.org/TR/2001/REC-SVG-20010904/DTD/svg10.dtd">
<svg version="1.0" xmlns="http://www.w3.org/2000/svg"
 width="346.000000pt" height="322.000000pt" viewBox="0 0 346.000000 322.000000"
 preserveAspectRatio="xMidYMid meet">

<g transform="translate(0.000000,322.000000) scale(0.100000,-0.100000)"
fill="#000000" stroke="none">
<path d="M746 3209 c-91 -12 -236 -61 -311 -106 -201 -119 -347 -313 -408
-543 -22 -85 -22 -87 -22 -945 0 -967 -2 -936 75 -1102 51 -110 98 -178 175
-256 116 -117 256 -195 422 -234 73 -17 143 -18 1053 -18 910 0 980 1 1053 18
166 39 306 117 422 234 109 110 185 245 227 403 l23 85 0 865 c0 863 0 865
-22 950 -94 354 -377 605 -735 650 -102 12 -1852 11 -1952 -1z m1827 -478 c16
-1 17 -16 15 -213 l-3 -213 -531 -5 -530 -5 -42 -28 c-157 -104 -126 -320 53
-366 22 -5 130 -17 240 -26 210 -17 297 -32 405 -66 316 -103 493 -366 458
-681 -30 -281 -215 -484 -518 -570 -72 -21 -99 -22 -617 -26 l-543 -3 0 225 0
226 513 0 c566 0 578 1 651 61 48 40 66 82 66 154 0 67 -15 99 -69 148 -63 57
-118 69 -411 88 -207 13 -294 30 -395 79 -173 83 -304 218 -355 364 -80 233
-25 471 150 647 116 116 289 194 460 207 64 5 899 7 1003 3z"/>
</g>
</svg>
